<svg xmlns="http://www.w3.org/2000/svg" xmlns:xlink="http://www.w3.org/1999/xlink" viewBox="0 0 820.91 820.91"><defs><style>.cls-1{fill:url(#未命名的渐变_4);}.cls-2{fill:url(#未命名的渐变_4-2);}.cls-3{fill:url(#未命名的渐变_4-3);}.cls-4{fill:url(#未命名的渐变_4-4);}.cls-5{fill:url(#未命名的渐变_4-5);}.cls-6{fill:url(#未命名的渐变_4-6);}.cls-7{fill:url(#未命名的渐变_4-7);}.cls-8{fill:url(#未命名的渐变_4-8);}.cls-9{fill:url(#未命名的渐变_4-9);}.cls-10{fill:url(#未命名的渐变_4-10);}.cls-11{fill:url(#未命名的渐变_4-11);}.cls-12{fill:url(#未命名的渐变_4-12);}.cls-13{fill:url(#未命名的渐变_4-13);}.cls-14{fill:url(#未命名的渐变_4-14);}.cls-15{fill:url(#未命名的渐变_4-15);}.cls-16{fill:url(#未命名的渐变_4-16);}.cls-17{fill:url(#未命名的渐变_4-17);}.cls-18{fill:url(#未命名的渐变_4-18);}.cls-19{fill:url(#未命名的渐变_4-19);}.cls-20{fill:url(#未命名的渐变_4-20);}.cls-21{fill:url(#未命名的渐变_4-21);}.cls-22{fill:url(#未命名的渐变_4-22);}.cls-23{fill:url(#未命名的渐变_4-23);}.cls-24{fill:url(#未命名的渐变_4-24);}.cls-25{fill:url(#未命名的渐变_4-25);}.cls-26{fill:url(#未命名的渐变_4-26);}.cls-27{fill:url(#未命名的渐变_4-27);}.cls-28{fill:url(#未命名的渐变_4-28);}.cls-29{fill:url(#未命名的渐变_4-29);}.cls-30{fill:url(#未命名的渐变_4-30);}.cls-31{fill:url(#未命名的渐变_4-31);}.cls-32{fill:url(#未命名的渐变_4-32);}.cls-33{fill:url(#未命名的渐变_4-33);}.cls-34{fill:url(#未命名的渐变_4-34);}.cls-35{fill:url(#未命名的渐变_4-35);}.cls-36{fill:url(#未命名的渐变_4-36);}.cls-37{fill:url(#未命名的渐变_4-37);}.cls-38{fill:url(#未命名的渐变_4-38);}.cls-39{fill:url(#未命名的渐变_4-39);}.cls-40{fill:url(#未命名的渐变_4-40);}.cls-41{fill:url(#未命名的渐变_4-41);}.cls-42{fill:url(#未命名的渐变_4-42);}.cls-43{fill:url(#未命名的渐变_4-43);}.cls-44{fill:url(#未命名的渐变_4-44);}.cls-45{fill:url(#未命名的渐变_4-45);}.cls-46{fill:url(#未命名的渐变_4-46);}.cls-47{fill:url(#未命名的渐变_4-47);}.cls-48{fill:url(#未命名的渐变_4-48);}.cls-49{fill:url(#未命名的渐变_4-49);}.cls-50{fill:url(#未命名的渐变_4-50);}.cls-51{fill:url(#未命名的渐变_4-51);}.cls-52{fill:url(#未命名的渐变_4-52);}.cls-53{fill:url(#未命名的渐变_4-53);}.cls-54{fill:url(#未命名的渐变_4-54);}.cls-55{fill:url(#未命名的渐变_4-55);}.cls-56{fill:url(#未命名的渐变_4-56);}</style><linearGradient id="未命名的渐变_4" x1="441.35" y1="340.57" x2="449.05" y2="11.22" gradientUnits="userSpaceOnUse"><stop offset="0" stop-color="#282828"/><stop offset="0.5" stop-color="#fff"/></linearGradient><linearGradient id="未命名的渐变_4-2" x1="461.5" y1="340.59" x2="469.38" y2="3.71" xlink:href="#未命名的渐变_4"/><linearGradient id="未命名的渐变_4-3" x1="481.1" y1="340.57" x2="489.08" y2="-0.86" xlink:href="#未命名的渐变_4"/><linearGradient id="未命名的渐变_4-4" x1="501.89" y1="340.51" x2="509.87" y2="-0.89" xlink:href="#未命名的渐变_4"/><linearGradient id="未命名的渐变_4-5" x1="523.53" y1="340.38" x2="531.41" y2="3.57" xlink:href="#未命名的渐变_4"/><linearGradient id="未命名的渐变_4-6" x1="544.06" y1="340.18" x2="551.73" y2="12.21" xlink:href="#未命名的渐变_4"/><linearGradient id="未命名的渐变_4-7" x1="561.85" y1="339.95" x2="569.25" y2="23.37" xlink:href="#未命名的渐变_4"/><linearGradient id="未命名的渐变_4-8" x1="382.88" y1="339.19" x2="155.45" y2="100.86" xlink:href="#未命名的渐变_4"/><linearGradient id="未命名的渐变_4-9" x1="397.15" y1="324.96" x2="164.51" y2="81.18" xlink:href="#未命名的渐变_4"/><linearGradient id="未命名的渐变_4-10" x1="410.99" y1="311.09" x2="175.21" y2="64.01" xlink:href="#未命名的渐变_4"/><linearGradient id="未命名的渐变_4-11" x1="425.65" y1="296.34" x2="189.89" y2="49.29" xlink:href="#未命名的渐变_4"/><linearGradient id="未命名的渐变_4-12" x1="440.86" y1="280.94" x2="208.28" y2="37.22" xlink:href="#未命名的渐变_4"/><linearGradient id="未命名的渐变_4-13" x1="455.24" y1="266.29" x2="228.75" y2="28.95" xlink:href="#未命名的渐变_4"/><linearGradient id="未命名的渐变_4-14" x1="467.66" y1="253.55" x2="249.03" y2="24.46" xlink:href="#未命名的渐变_4"/><linearGradient id="未命名的渐变_4-15" x1="340.56" y1="379.56" x2="11.22" y2="371.86" xlink:href="#未命名的渐变_4"/><linearGradient id="未命名的渐变_4-16" x1="340.59" y1="359.41" x2="3.71" y2="351.53" xlink:href="#未命名的渐变_4"/><linearGradient id="未命名的渐变_4-17" x1="340.57" y1="339.81" x2="-0.86" y2="331.83" xlink:href="#未命名的渐变_4"/><linearGradient id="未命名的渐变_4-18" x1="340.51" y1="319.02" x2="-0.89" y2="311.04" xlink:href="#未命名的渐变_4"/><linearGradient id="未命名的渐变_4-19" x1="340.38" y1="297.38" x2="3.57" y2="289.5" xlink:href="#未命名的渐变_4"/><linearGradient id="未命名的渐变_4-20" x1="340.18" y1="276.85" x2="12.21" y2="269.18" xlink:href="#未命名的渐变_4"/><linearGradient id="未命名的渐变_4-21" x1="339.95" y1="259.06" x2="23.37" y2="251.66" xlink:href="#未命名的渐变_4"/><linearGradient id="未命名的渐变_4-22" x1="339.19" y1="438.03" x2="100.86" y2="665.46" xlink:href="#未命名的渐变_4"/><linearGradient id="未命名的渐变_4-23" x1="324.96" y1="423.76" x2="81.18" y2="656.4" xlink:href="#未命名的渐变_4"/><linearGradient id="未命名的渐变_4-24" x1="311.09" y1="409.92" x2="64.02" y2="645.7" xlink:href="#未命名的渐变_4"/><linearGradient id="未命名的渐变_4-25" x1="296.34" y1="395.26" x2="49.29" y2="631.02" xlink:href="#未命名的渐变_4"/><linearGradient id="未命名的渐变_4-26" x1="280.94" y1="380.05" x2="37.22" y2="612.63" xlink:href="#未命名的渐变_4"/><linearGradient id="未命名的渐变_4-27" x1="266.29" y1="365.67" x2="28.95" y2="592.16" xlink:href="#未命名的渐变_4"/><linearGradient id="未命名的渐变_4-28" x1="253.55" y1="353.25" x2="24.46" y2="571.88" xlink:href="#未命名的渐变_4"/><linearGradient id="未命名的渐变_4-29" x1="379.56" y1="480.34" x2="371.86" y2="809.69" xlink:href="#未命名的渐变_4"/><linearGradient id="未命名的渐变_4-30" x1="359.41" y1="480.32" x2="351.53" y2="817.2" xlink:href="#未命名的渐变_4"/><linearGradient id="未命名的渐变_4-31" x1="339.81" y1="480.34" x2="331.83" y2="821.77" xlink:href="#未命名的渐变_4"/><linearGradient id="未命名的渐变_4-32" x1="319.02" y1="480.4" x2="311.04" y2="821.8" xlink:href="#未命名的渐变_4"/><linearGradient id="未命名的渐变_4-33" x1="297.38" y1="480.53" x2="289.5" y2="817.34" xlink:href="#未命名的渐变_4"/><linearGradient id="未命名的渐变_4-34" x1="276.85" y1="480.73" x2="269.18" y2="808.7" xlink:href="#未命名的渐变_4"/><linearGradient id="未命名的渐变_4-35" x1="259.06" y1="480.96" x2="251.66" y2="797.54" xlink:href="#未命名的渐变_4"/><linearGradient id="未命名的渐变_4-36" x1="353.25" y1="567.36" x2="571.88" y2="796.45" xlink:href="#未命名的渐变_4"/><linearGradient id="未命名的渐变_4-37" x1="438.03" y1="481.72" x2="665.46" y2="720.05" xlink:href="#未命名的渐变_4"/><linearGradient id="未命名的渐变_4-38" x1="423.76" y1="495.95" x2="656.41" y2="739.74" xlink:href="#未命名的渐变_4"/><linearGradient id="未命名的渐变_4-39" x1="409.92" y1="509.82" x2="645.7" y2="756.9" xlink:href="#未命名的渐变_4"/><linearGradient id="未命名的渐变_4-40" x1="395.26" y1="524.57" x2="631.02" y2="771.62" xlink:href="#未命名的渐变_4"/><linearGradient id="未命名的渐变_4-41" x1="380.05" y1="539.97" x2="612.63" y2="783.69" xlink:href="#未命名的渐变_4"/><linearGradient id="未命名的渐变_4-42" x1="365.67" y1="554.62" x2="592.16" y2="791.96" xlink:href="#未命名的渐变_4"/><linearGradient id="未命名的渐变_4-43" x1="480.34" y1="441.35" x2="809.69" y2="449.05" xlink:href="#未命名的渐变_4"/><linearGradient id="未命名的渐变_4-44" x1="480.32" y1="461.5" x2="817.2" y2="469.38" xlink:href="#未命名的渐变_4"/><linearGradient id="未命名的渐变_4-45" x1="480.34" y1="481.1" x2="821.77" y2="489.08" xlink:href="#未命名的渐变_4"/><linearGradient id="未命名的渐变_4-46" x1="480.4" y1="501.89" x2="821.8" y2="509.87" xlink:href="#未命名的渐变_4"/><linearGradient id="未命名的渐变_4-47" x1="480.53" y1="523.53" x2="817.34" y2="531.41" xlink:href="#未命名的渐变_4"/><linearGradient id="未命名的渐变_4-48" x1="480.73" y1="544.06" x2="808.7" y2="551.73" xlink:href="#未命名的渐变_4"/><linearGradient id="未命名的渐变_4-49" x1="480.96" y1="561.85" x2="797.54" y2="569.25" xlink:href="#未命名的渐变_4"/><linearGradient id="未命名的渐变_4-50" x1="481.72" y1="382.88" x2="720.05" y2="155.45" xlink:href="#未命名的渐变_4"/><linearGradient id="未命名的渐变_4-51" x1="495.95" y1="397.15" x2="739.73" y2="164.51" xlink:href="#未命名的渐变_4"/><linearGradient id="未命名的渐变_4-52" x1="509.82" y1="410.99" x2="756.89" y2="175.21" xlink:href="#未命名的渐变_4"/><linearGradient id="未命名的渐变_4-53" x1="524.57" y1="425.65" x2="771.62" y2="189.89" xlink:href="#未命名的渐变_4"/><linearGradient id="未命名的渐变_4-54" x1="539.97" y1="440.86" x2="783.69" y2="208.28" xlink:href="#未命名的渐变_4"/><linearGradient id="未命名的渐变_4-55" x1="554.62" y1="455.24" x2="791.96" y2="228.75" xlink:href="#未命名的渐变_4"/><linearGradient id="未命名的渐变_4-56" x1="567.36" y1="467.66" x2="796.45" y2="249.03" xlink:href="#未命名的渐变_4"/></defs><g id="图层_2" data-name="图层 2"><g id="logo"><path class="cls-1" d="M581.47,339.62c-24.76-25.59-48.53-52-72-78.65s-46.48-53.69-69.2-81-45.09-54.85-67.08-82.74-43.6-56.1-64.25-85.1c24.77,25.58,48.54,52,72,78.64s46.48,53.69,69.19,81,45.08,54.86,67.06,82.75S560.8,310.63,581.47,339.62Z"/><path class="cls-2" d="M349.41,4.68c21.52,26.4,42,53.53,62.15,80.87s39.81,55,59.16,82.94S509,224.56,527.6,253s36.73,57.17,53.87,86.61c-21.54-26.39-42-53.51-62.17-80.86s-39.81-55-59.14-82.95-38.31-56.08-56.87-84.53S366.56,34.11,349.41,4.68Z"/><path class="cls-3" d="M581.47,339.62c-18.38-27-35.64-54.6-52.57-82.4s-33.32-55.9-49.39-84.19-31.76-56.8-47-85.56S402.45,29.71,388.71.09c18.39,27,35.65,54.59,52.58,82.39s33.33,55.91,49.38,84.21,31.74,56.8,47,85.56S567.72,310,581.47,339.62Z"/><path class="cls-4" d="M430.3,0c15,27.22,28.88,55,42.39,82.86s26.45,56,39.06,84.34,24.8,56.78,36.54,85.46,23,57.57,33.18,87c-15-27.21-28.9-54.95-42.41-82.85s-26.45-56-39-84.35S475.23,115.64,463.49,87,440.47,29.38,430.3,0Z"/><path class="cls-5" d="M581.47,339.62c-11.53-27.13-21.84-54.64-31.79-82.28s-19.31-55.46-28.32-83.4-17.59-56-25.69-84.24S479.93,33.09,473.48,4.33C485,31.45,495.34,59,505.28,86.6s19.31,55.46,28.3,83.41,17.58,56,25.68,84.24S575,310.86,581.47,339.62Z"/><path class="cls-6" d="M514.32,12.77c8.2,26.7,15.15,53.66,21.72,80.7s12.54,54.2,18.14,81.43,10.77,54.56,15.45,82,8.86,54.95,11.84,82.73c-8.22-26.7-15.17-53.66-21.73-80.7s-12.55-54.19-18.13-81.43-10.76-54.57-15.43-82S517.31,40.54,514.32,12.77Z"/><path class="cls-7" d="M549.64,23.7c5.3,26.06,9.32,52.25,13,78.48s6.68,52.51,9.34,78.84,4.88,52.69,6.59,79.11,3,52.89,2.94,79.49c-5.32-26.06-9.35-52.25-13-78.47s-6.68-52.52-9.32-78.84-4.87-52.7-6.58-79.12S549.64,50.3,549.64,23.7Z"/><path class="cls-8" d="M481.29,239.44c-35.6-.59-71.08-2.45-106.52-4.7s-70.84-5.1-106.19-8.32-70.67-6.91-105.94-11.08S92.15,206.5,57,200.6c35.6.58,71.08,2.43,106.52,4.68s70.84,5.1,106.19,8.35,70.67,6.92,105.94,11.09S446.18,233.56,481.29,239.44Z"/><path class="cls-9" d="M80.36,166.7c33.89,3.44,67.55,8.15,101.13,13.23S248.56,190.7,282,196.75s66.75,12.55,100,19.54,66.4,14.46,99.33,23.15c-33.89-3.43-67.54-8.13-101.13-13.22s-67.07-10.76-100.48-16.84-66.74-12.56-100-19.55S113.3,175.37,80.36,166.7Z"/><path class="cls-10" d="M481.29,239.44c-32.07-6.08-63.8-13.4-95.43-21.09s-63.1-16-94.47-24.61S228.78,176,197.66,166.47s-62.1-19.58-92.75-30.81c32.07,6.07,63.81,13.39,95.44,21.08s63.09,16,94.46,24.62,62.61,17.73,93.72,27.29S450.63,228.23,481.29,239.44Z"/><path class="cls-11" d="M134.25,106.19c29.87,8.62,59.29,18.44,88.56,28.62s58.34,20.92,87.26,32,57.69,22.61,86.27,34.6,57,24.42,85,38c-29.88-8.61-59.29-18.42-88.57-28.6s-58.33-20.92-87.25-32-57.68-22.63-86.26-34.61S162.22,119.77,134.25,106.19Z"/><path class="cls-12" d="M481.29,239.44c-27.33-11-54.08-23.19-80.66-35.7s-52.87-25.56-79-39-52.05-27.17-77.74-41.4-51.15-28.9-76.05-44.67c27.34,11,54.09,23.17,80.66,35.69s52.87,25.56,79,39,52,27.18,77.73,41.41S456.38,223.68,481.29,239.44Z"/><path class="cls-13" d="M202.69,55.81c24.68,13.08,48.66,27.23,72.42,41.7S322.3,127,345.52,142.26s46.2,31,68.9,47.06,45.13,32.58,66.87,50.12c-24.69-13.07-48.67-27.21-72.43-41.69S361.67,168.3,338.46,153s-46.19-31-68.89-47.06S224.44,73.33,202.69,55.81Z"/><path class="cls-14" d="M235.4,38.56c22.17,14.68,43.53,30.36,64.65,46.33S341.91,117.3,362.41,134s40.71,33.81,60.6,51.28,39.48,35.32,58.28,54.13c-22.18-14.67-43.55-30.33-64.67-46.31S374.77,160.72,354.28,144s-40.7-33.82-60.59-51.29S254.21,57.36,235.4,38.56Z"/><path class="cls-15" d="M339.62,239.44c-25.59,24.76-52,48.53-78.65,72s-53.69,46.48-81,69.2-54.85,45.09-82.74,67.08-56.1,43.6-85.1,64.25c25.58-24.77,52-48.54,78.64-72s53.69-46.48,81-69.19,54.86-45.08,82.75-67.06S310.63,260.11,339.62,239.44Z"/><path class="cls-16" d="M4.68,471.5c26.4-21.52,53.53-42,80.87-62.15s55-39.81,82.94-59.16,56.07-38.32,84.52-56.88,57.17-36.73,86.61-53.87c-26.39,21.54-53.51,42-80.86,62.17s-55,39.81-82.95,59.14-56.08,38.31-84.53,56.87S34.11,454.35,4.68,471.5Z"/><path class="cls-17" d="M339.62,239.44c-27,18.38-54.6,35.64-82.4,52.57S201.32,325.33,173,341.4s-56.8,31.76-85.56,47S29.71,418.46.09,432.2c27-18.39,54.59-35.65,82.39-52.58s55.91-33.33,84.21-49.38,56.8-31.74,85.56-47S310,253.19,339.62,239.44Z"/><path class="cls-18" d="M0,390.61c27.22-15,55-28.88,82.86-42.39s56-26.45,84.34-39.06,56.78-24.8,85.46-36.54,57.57-23,87-33.18c-27.21,15-54.95,28.9-82.85,42.41s-56,26.45-84.35,39S115.64,345.68,87,357.42,29.38,380.44,0,390.61Z"/><path class="cls-19" d="M339.62,239.44C312.49,251,285,261.28,257.34,271.23s-55.46,19.31-83.4,28.32-56,17.59-84.24,25.69S33.09,341,4.33,347.43C31.45,335.89,59,325.57,86.6,315.63s55.46-19.31,83.41-28.3,56-17.58,84.24-25.68S310.86,245.91,339.62,239.44Z"/><path class="cls-20" d="M12.77,306.59c26.7-8.2,53.66-15.15,80.7-21.72s54.2-12.54,81.43-18.14,54.56-10.77,82-15.45,54.95-8.86,82.73-11.84c-26.7,8.22-53.66,15.17-80.7,21.74s-54.19,12.54-81.43,18.12-54.57,10.76-82,15.43S40.54,303.6,12.77,306.59Z"/><path class="cls-21" d="M23.7,271.27c26.06-5.3,52.25-9.32,78.48-13S154.69,251.63,181,249s52.69-4.88,79.11-6.59,52.89-2.95,79.49-2.94c-26.06,5.32-52.25,9.35-78.47,13s-52.52,6.68-78.84,9.32-52.7,4.87-79.12,6.58S50.3,271.27,23.7,271.27Z"/><path class="cls-22" d="M239.44,339.62c-.59,35.6-2.45,71.08-4.7,106.52s-5.1,70.84-8.32,106.19S219.51,623,215.34,658.27s-8.84,70.49-14.74,105.6c.58-35.6,2.43-71.08,4.68-106.52s5.1-70.84,8.35-106.19,6.92-70.67,11.09-105.94S233.56,374.73,239.44,339.62Z"/><path class="cls-23" d="M166.7,740.55c3.44-33.89,8.15-67.55,13.23-101.13s10.77-67.07,16.82-100.48,12.55-66.75,19.54-100,14.46-66.4,23.15-99.33c-3.43,33.89-8.13,67.54-13.22,101.13s-10.76,67.07-16.84,100.48-12.56,66.74-19.55,100S175.37,707.61,166.7,740.55Z"/><path class="cls-24" d="M239.44,339.62c-6.08,32.07-13.4,63.8-21.09,95.43s-16,63.1-24.61,94.47S176,592.13,166.47,623.25s-19.58,62.1-30.81,92.75c6.07-32.07,13.39-63.81,21.08-95.44s16-63.09,24.62-94.46,17.73-62.61,27.29-93.72S228.23,370.28,239.44,339.62Z"/><path class="cls-25" d="M106.19,686.66c8.62-29.87,18.44-59.29,28.62-88.56s20.92-58.34,32-87.26,22.61-57.69,34.6-86.27,24.42-57,38-84.95c-8.61,29.88-18.42,59.29-28.6,88.57s-20.92,58.33-32,87.25-22.63,57.68-34.61,86.26S119.77,658.69,106.19,686.66Z"/><path class="cls-26" d="M239.44,339.62c-11,27.33-23.19,54.08-35.7,80.66s-25.56,52.87-39,79-27.17,52.05-41.4,77.74-28.9,51.15-44.67,76c11-27.34,23.17-54.09,35.69-80.66s25.56-52.87,39-79,27.18-52,41.41-77.73S223.68,364.53,239.44,339.62Z"/><path class="cls-27" d="M55.81,618.22C68.89,593.54,83,569.56,97.51,545.8s29.46-47.19,44.75-70.41,31-46.2,47.06-68.9,32.58-45.13,50.12-66.87c-13.07,24.69-27.21,48.67-41.69,72.43S168.3,459.24,153,482.45s-31,46.19-47.06,68.89S73.33,596.47,55.81,618.22Z"/><path class="cls-28" d="M38.56,585.51C53.24,563.34,68.92,542,84.89,520.86S117.3,479,134,458.5s33.81-40.71,51.28-60.6,35.32-39.48,54.13-58.28c-14.67,22.18-30.33,43.55-46.31,64.67S160.72,446.14,144,466.63s-33.82,40.7-51.29,60.59S57.36,566.7,38.56,585.51Z"/><path class="cls-29" d="M239.44,481.29c24.76,25.59,48.53,52,72,78.65s46.48,53.69,69.2,81,45.09,54.85,67.08,82.74,43.6,56.1,64.25,85.1c-24.77-25.58-48.54-52-72-78.64s-46.48-53.69-69.19-81-45.08-54.86-67.06-82.75S260.11,510.28,239.44,481.29Z"/><path class="cls-30" d="M471.5,816.23c-21.52-26.4-42-53.53-62.15-80.87s-39.81-55-59.16-82.94-38.32-56.07-56.88-84.52-36.73-57.17-53.87-86.61c21.54,26.39,42,53.51,62.17,80.86s39.81,55,59.14,83,38.31,56.08,56.87,84.53S454.35,786.8,471.5,816.23Z"/><path class="cls-31" d="M239.44,481.29c18.38,27,35.64,54.6,52.57,82.4s33.32,55.9,49.39,84.19,31.76,56.8,47,85.56,30.06,57.76,43.8,87.38c-18.39-27-35.65-54.59-52.58-82.39s-33.33-55.91-49.38-84.21-31.74-56.8-47-85.56S253.19,510.9,239.44,481.29Z"/><path class="cls-32" d="M390.61,820.91c-15-27.22-28.88-55-42.39-82.86s-26.45-56-39.06-84.34-24.8-56.78-36.54-85.46-23-57.57-33.18-87c15,27.21,28.9,54.95,42.41,82.85s26.45,56,39,84.35,24.79,56.78,36.53,85.47S380.44,791.53,390.61,820.91Z"/><path class="cls-33" d="M239.44,481.29c11.53,27.13,21.84,54.64,31.79,82.28S290.54,619,299.55,647s17.59,56,25.69,84.24,15.74,56.61,22.19,85.37c-11.54-27.12-21.86-54.64-31.8-82.27s-19.31-55.46-28.3-83.41-17.58-56-25.68-84.24S245.91,510.05,239.44,481.29Z"/><path class="cls-34" d="M306.59,808.14c-8.2-26.7-15.15-53.66-21.72-80.7s-12.54-54.2-18.14-81.43S256,591.45,251.28,564s-8.86-54.95-11.84-82.73C247.66,508,254.61,535,261.18,562s12.54,54.19,18.12,81.43,10.76,54.57,15.43,82S303.6,780.37,306.59,808.14Z"/><path class="cls-35" d="M271.27,797.21c-5.3-26.06-9.32-52.25-13-78.48s-6.68-52.51-9.34-78.84-4.88-52.69-6.59-79.11-2.95-52.89-2.94-79.49c5.32,26.06,9.35,52.25,13,78.47s6.68,52.52,9.32,78.84,4.87,52.7,6.58,79.12S271.27,770.61,271.27,797.21Z"/><path class="cls-36" d="M585.51,782.35C563.34,767.67,542,752,520.86,736S479,703.61,458.5,686.88s-40.71-33.81-60.6-51.28-39.48-35.32-58.28-54.13c22.18,14.66,43.55,30.33,64.67,46.31s41.85,32.41,62.34,49.16,40.7,33.82,60.59,51.29S566.7,763.55,585.51,782.35Z"/><path class="cls-37" d="M339.62,581.47c35.6.59,71.08,2.45,106.52,4.7s70.84,5.1,106.19,8.32S623,601.4,658.27,605.57s70.49,8.84,105.6,14.74c-35.6-.58-71.08-2.44-106.52-4.68s-70.84-5.1-106.19-8.35-70.67-6.92-105.94-11.09S374.73,587.35,339.62,581.47Z"/><path class="cls-38" d="M740.55,654.21C706.66,650.77,673,646.06,639.42,641s-67.07-10.77-100.48-16.82-66.75-12.55-100-19.54-66.4-14.46-99.33-23.15c33.89,3.43,67.54,8.13,101.13,13.22s67.07,10.76,100.48,16.84,66.74,12.56,100,19.55S707.61,645.54,740.55,654.21Z"/><path class="cls-39" d="M339.62,581.47c32.07,6.08,63.8,13.4,95.43,21.09s63.1,16,94.47,24.61,62.61,17.71,93.73,27.27S685.35,674,716,685.25c-32.07-6.07-63.81-13.39-95.44-21.08s-63.09-16-94.46-24.62-62.61-17.73-93.72-27.29S370.28,592.68,339.62,581.47Z"/><path class="cls-40" d="M686.66,714.72c-29.87-8.62-59.29-18.44-88.56-28.62s-58.34-20.92-87.26-32-57.69-22.61-86.27-34.6-57-24.42-84.95-38c29.88,8.61,59.29,18.42,88.57,28.6s58.33,20.92,87.25,32,57.68,22.63,86.26,34.61S658.69,701.14,686.66,714.72Z"/><path class="cls-41" d="M339.62,581.47c27.33,11,54.08,23.19,80.66,35.7s52.87,25.56,79,39,52.05,27.17,77.74,41.4,51.15,28.9,76,44.67C625.72,731.18,599,719,572.4,706.5s-52.87-25.56-79-39-52-27.18-77.73-41.41S364.53,597.23,339.62,581.47Z"/><path class="cls-42" d="M618.22,765.1c-24.68-13.08-48.66-27.23-72.42-41.7s-47.19-29.46-70.41-44.75-46.2-31-68.9-47.06S361.36,599,339.62,581.47c24.69,13.07,48.67,27.21,72.43,41.69s47.19,29.45,70.4,44.77,46.19,31,68.89,47.06S596.47,747.58,618.22,765.1Z"/><path class="cls-43" d="M481.29,581.47c25.59-24.76,52-48.53,78.65-72s53.69-46.48,81-69.2,54.85-45.09,82.74-67.08,56.1-43.6,85.1-64.25c-25.58,24.77-52,48.54-78.64,72s-53.69,46.48-81,69.19-54.86,45.08-82.75,67.06S510.28,560.8,481.29,581.47Z"/><path class="cls-44" d="M816.23,349.41c-26.4,21.52-53.53,42-80.87,62.15s-55,39.81-82.94,59.16S596.35,509,567.9,527.6s-57.17,36.73-86.61,53.87c26.39-21.54,53.51-42,80.86-62.17s55-39.81,83-59.14,56.08-38.31,84.53-56.87S786.8,366.56,816.23,349.41Z"/><path class="cls-45" d="M481.29,581.47c27-18.38,54.6-35.64,82.4-52.57s55.9-33.32,84.19-49.39,56.8-31.76,85.56-47,57.76-30.06,87.38-43.8c-27,18.39-54.59,35.65-82.39,52.58s-55.91,33.33-84.21,49.38-56.8,31.74-85.56,47S510.9,567.72,481.29,581.47Z"/><path class="cls-46" d="M820.91,430.3c-27.22,15-55,28.88-82.86,42.39s-56,26.45-84.34,39.06-56.78,24.8-85.46,36.54-57.57,23-87,33.18c27.21-15,54.95-28.9,82.85-42.41s56-26.45,84.35-39,56.78-24.79,85.47-36.53S791.53,440.47,820.91,430.3Z"/><path class="cls-47" d="M481.29,581.47c27.13-11.53,54.64-21.84,82.28-31.79S619,530.37,647,521.36s56-17.59,84.24-25.69,56.61-15.74,85.37-22.19c-27.12,11.54-54.64,21.86-82.27,31.8s-55.46,19.31-83.41,28.3-56,17.58-84.24,25.68S510.05,575,481.29,581.47Z"/><path class="cls-48" d="M808.14,514.32c-26.7,8.2-53.66,15.15-80.7,21.72s-54.2,12.54-81.43,18.14S591.45,565,564,569.63s-54.95,8.86-82.73,11.84C508,573.25,535,566.3,562,559.73s54.19-12.54,81.43-18.12,54.57-10.76,82-15.43S780.37,517.31,808.14,514.32Z"/><path class="cls-49" d="M797.21,549.64c-26.06,5.3-52.25,9.32-78.48,13s-52.51,6.68-78.84,9.34-52.69,4.88-79.11,6.59-52.89,3-79.49,2.94c26.06-5.32,52.25-9.35,78.47-13s52.52-6.68,78.84-9.32,52.7-4.87,79.12-6.58S770.61,549.64,797.21,549.64Z"/><path class="cls-50" d="M581.47,481.29c.59-35.6,2.45-71.08,4.7-106.52s5.1-70.84,8.32-106.19,6.91-70.67,11.08-105.94S614.41,92.15,620.31,57c-.58,35.6-2.43,71.08-4.69,106.52s-5.09,70.84-8.34,106.19-6.92,70.67-11.09,105.94S587.35,446.18,581.47,481.29Z"/><path class="cls-51" d="M654.21,80.36c-3.44,33.89-8.15,67.55-13.23,101.13S630.21,248.56,624.16,282s-12.55,66.75-19.54,100-14.46,66.4-23.15,99.33c3.43-33.89,8.13-67.54,13.22-101.13s10.76-67.07,16.84-100.48,12.56-66.74,19.55-100S645.54,113.3,654.21,80.36Z"/><path class="cls-52" d="M581.47,481.29c6.08-32.07,13.4-63.8,21.09-95.43s16-63.1,24.61-94.47,17.71-62.61,27.27-93.73,19.58-62.1,30.81-92.75c-6.07,32.07-13.39,63.81-21.08,95.44s-16,63.09-24.62,94.46-17.73,62.61-27.29,93.72S592.68,450.63,581.47,481.29Z"/><path class="cls-53" d="M714.72,134.25c-8.62,29.87-18.44,59.29-28.62,88.56s-20.92,58.34-32,87.26-22.61,57.69-34.6,86.27-24.42,57-38,85c8.61-29.88,18.42-59.29,28.6-88.57s20.92-58.33,32-87.25,22.63-57.68,34.61-86.26S701.14,162.22,714.72,134.25Z"/><path class="cls-54" d="M581.47,481.29c11-27.33,23.19-54.08,35.7-80.66s25.56-52.87,39-79,27.17-52.05,41.4-77.74,28.9-51.15,44.67-76.05c-11,27.34-23.17,54.09-35.69,80.66s-25.56,52.87-39,79-27.18,52-41.41,77.73S597.23,456.38,581.47,481.29Z"/><path class="cls-55" d="M765.1,202.69c-13.08,24.68-27.23,48.66-41.7,72.42s-29.46,47.19-44.75,70.41-31,46.2-47.06,68.9S599,459.55,581.47,481.29c13.07-24.69,27.21-48.67,41.69-72.43s29.45-47.19,44.77-70.4,31-46.19,47.06-68.89S747.58,224.44,765.1,202.69Z"/><path class="cls-56" d="M782.35,235.4C767.67,257.57,752,278.94,736,300.05s-32.41,41.86-49.14,62.36S653.07,403.12,635.6,423s-35.32,39.48-54.13,58.28c14.67-22.18,30.33-43.55,46.31-64.67s32.41-41.85,49.16-62.34,33.82-40.7,51.29-60.59S763.55,254.21,782.35,235.4Z"/></g></g></svg>